<?xml version="1.0" standalone="no"?>
<!DOCTYPE svg PUBLIC "-//W3C//DTD SVG 20010904//EN"
 "http://www.w3.org/TR/2001/REC-SVG-20010904/DTD/svg10.dtd">
<svg version="1.0" xmlns="http://www.w3.org/2000/svg"
 width="1472.000000pt" height="1472.000000pt" viewBox="0 0 1472.000000 1472.000000"
 preserveAspectRatio="xMidYMid meet">
<metadata>
Created by potrace 1.11, written by Peter Selinger 2001-2013
</metadata>
<g transform="translate(0.000000,1472.000000) scale(0.100000,-0.100000)"
fill="#000000" stroke="none">
<path d="M3247 12544 c-1 -1 -31 -4 -67 -8 -269 -24 -519 -194 -649 -440 -17
-33 -56 -136 -86 -230 -78 -247 -162 -516 -197 -631 -17 -55 -36 -105 -42
-111 -12 -13 -55 -26 -331 -104 -99 -28 -191 -55 -205 -60 -27 -10 -592 -193
-600 -195 -3 0 -27 -8 -55 -17 -27 -9 -225 -73 -440 -143 -214 -69 -399 -129
-409 -134 -18 -7 -19 -21 -22 -207 -1 -109 -5 -415 -9 -679 -6 -463 -10 -628
-19 -670 -2 -11 -7 -47 -10 -80 -8 -66 -15 -117 -21 -155 -3 -14 -7 -54 -11
-90 -3 -36 -8 -67 -9 -70 -2 -3 -6 -35 -10 -70 -3 -36 -8 -76 -10 -90 -2 -14
-7 -49 -10 -79 -4 -30 -8 -61 -10 -70 -1 -9 -6 -44 -10 -77 -6 -61 -6 -61 27
-82 18 -12 60 -41 93 -65 104 -76 565 -407 690 -496 66 -47 126 -91 133 -98 7
-7 16 -13 20 -13 4 -1 17 -9 29 -19 l23 -19 -41 -129 c-22 -70 -42 -135 -44
-143 -2 -8 -34 -109 -70 -225 -77 -242 -121 -381 -140 -445 -8 -25 -25 -81
-39 -125 -13 -44 -36 -116 -49 -160 -14 -44 -87 -276 -162 -515 -191 -607
-213 -682 -223 -756 -48 -362 146 -714 478 -868 30 -13 116 -43 190 -66 74
-23 146 -45 160 -50 14 -5 90 -29 170 -54 80 -25 224 -70 320 -100 197 -62
497 -156 610 -191 41 -12 147 -46 235 -73 153 -48 484 -152 795 -249 80 -25
153 -47 163 -49 10 -2 26 -5 35 -8 60 -18 209 -23 292 -11 265 38 488 196 619
439 34 62 81 203 221 656 22 74 52 169 65 210 14 41 48 149 76 240 28 91 64
206 80 255 50 160 427 1368 442 1420 18 57 19 52 18 -107 l-1 -118 279 0 279
0 0 1033 0 1032 24 75 c14 41 60 189 104 328 l79 254 48 -6 c69 -10 153 -43
192 -77 40 -35 74 -105 83 -168 3 -25 6 -444 6 -931 0 -819 -2 -889 -18 -945
-10 -33 -27 -72 -38 -88 -46 -65 -152 -103 -304 -111 -44 -2 -82 -4 -86 -5 -4
0 -6 -89 -6 -197 l1 -197 136 6 c75 4 150 9 166 12 17 3 55 10 87 16 204 35
385 146 475 292 61 96 106 225 119 336 3 31 8 58 9 62 26 42 25 1563 -1 1715
-38 229 -91 353 -198 460 -114 113 -283 187 -479 210 -29 3 -55 9 -59 13 -7 6
5 48 152 516 137 435 179 568 194 620 1 6 19 62 40 125 71 215 93 321 90 434
-1 86 -6 130 -18 181 -47 196 -167 374 -331 490 -110 78 -112 79 -940 337
-248 77 -535 167 -585 183 -25 8 -162 51 -305 96 -143 44 -375 117 -515 161
-140 44 -296 92 -345 108 -94 29 -305 65 -318 54z"/>
<path d="M13479 9306 c-3 -3 -32 -8 -64 -11 -127 -12 -202 -33 -312 -88 -91
-45 -207 -146 -263 -230 -50 -76 -106 -204 -129 -297 -20 -83 -24 -105 -41
-240 -10 -78 -7 -1532 3 -1575 4 -16 14 -66 23 -110 79 -416 344 -663 739
-689 l70 -5 0 215 0 214 -40 11 c-131 34 -217 158 -240 349 -9 69 -9 1589 -1
1650 30 214 114 334 256 364 l25 5 0 210 c0 135 -4 214 -11 221 -6 6 -12 8
-15 6z"/>
<path d="M13590 9087 l0 -216 53 -15 c134 -39 216 -176 233 -387 9 -114 9
-1458 0 -1580 -7 -96 -36 -204 -71 -259 -44 -70 -133 -130 -191 -130 l-24 0 0
-221 0 -220 78 6 c340 31 582 217 694 535 23 64 23 65 50 195 20 95 21 134 24
840 3 809 1 854 -52 1054 -52 201 -164 370 -309 471 -106 73 -263 126 -402
137 l-83 6 0 -216z"/>
<path d="M7705 9240 c-2 -3 -13 -54 -25 -115 -11 -60 -25 -123 -30 -140 -5
-16 -11 -43 -14 -60 -2 -16 -9 -52 -16 -80 -6 -27 -14 -61 -16 -75 -2 -14 -9
-43 -14 -65 -7 -30 -93 -434 -125 -590 -10 -51 -87 -412 -109 -515 -14 -63
-27 -126 -30 -140 -2 -14 -14 -68 -25 -120 -11 -52 -22 -106 -25 -120 -2 -14
-11 -55 -20 -93 -9 -37 -18 -79 -21 -95 -2 -15 -16 -79 -30 -142 -14 -63 -28
-126 -30 -140 -4 -20 -22 -110 -51 -245 -2 -11 -22 -102 -43 -202 l-38 -183
268 0 c148 0 269 1 269 3 0 1 7 40 15 87 15 80 24 135 75 425 12 66 35 199 51
295 16 96 32 186 34 200 13 66 36 199 41 230 3 19 7 42 9 50 2 8 7 35 10 60 4
25 13 77 20 115 8 39 21 111 29 160 8 50 22 131 31 180 9 50 20 117 26 150 5
33 18 107 29 165 11 58 22 121 25 140 3 19 10 53 15 75 5 22 11 58 14 80 4 22
11 63 16 90 17 87 21 109 25 140 3 17 9 53 15 80 5 28 12 62 14 78 3 15 10 54
16 87 6 33 13 71 16 85 2 14 6 37 9 53 3 15 8 43 11 62 l5 35 -211 0 c-117 0
-213 -2 -215 -5z"/>
<path d="M8776 9242 c-2 -1 53 -197 121 -435 68 -237 126 -439 128 -447 2 -8
16 -55 30 -105 14 -49 27 -97 30 -105 2 -8 24 -87 50 -175 26 -88 54 -185 62
-215 8 -30 28 -100 45 -155 16 -55 31 -107 33 -116 2 -10 15 -57 29 -105 79
-270 73 -203 72 -761 l-1 -503 271 0 271 0 -2 318 -3 317 -314 1245 -313 1245
-253 0 c-140 0 -255 -1 -256 -3z"/>
<path d="M9914 9235 c-1 -5 -12 -66 -24 -135 -12 -69 -23 -136 -26 -150 -2
-14 -13 -79 -24 -145 -12 -66 -23 -131 -25 -145 -3 -14 -18 -106 -35 -205 -17
-99 -32 -191 -35 -205 -6 -29 -22 -120 -30 -170 -16 -104 -16 -129 0 -190 9
-36 18 -72 20 -80 1 -8 8 -35 15 -60 7 -25 14 -56 17 -70 8 -38 9 -44 16 -65
3 -11 8 -31 11 -45 3 -14 21 -90 41 -170 20 -80 38 -149 39 -155 22 -99 41
-164 45 -159 3 3 6 9 7 12 0 4 6 27 13 52 7 25 35 126 63 225 27 99 68 243 90
320 22 77 42 148 44 158 2 9 6 25 8 35 4 17 42 149 71 247 18 61 66 235 70
255 4 17 219 779 233 825 l9 30 -305 0 c-195 0 -306 -4 -308 -10z"/>
<path d="M11041 9230 c-9 -20 -6 -388 3 -398 4 -4 349 -7 767 -7 l759 0 1 50
c0 49 0 326 -1 355 0 13 -90 15 -761 15 -667 0 -762 -2 -768 -15z"/>
<path d="M8216 9219 c-2 -8 -7 -30 -10 -49 -3 -19 -7 -46 -10 -60 -3 -14 -19
-104 -36 -200 -17 -96 -33 -184 -35 -195 -35 -188 -59 -321 -85 -465 l-32
-175 17 -110 c10 -60 19 -119 21 -130 2 -11 9 -49 14 -85 6 -36 13 -76 16 -90
2 -14 7 -41 9 -60 3 -19 8 -51 11 -70 3 -19 7 -44 9 -55 20 -125 28 -173 30
-187 2 -9 6 -38 10 -65 4 -26 9 -55 11 -63 3 -13 -17 -15 -152 -15 -85 0 -158
-3 -161 -8 -6 -9 -6 -11 -32 -187 -10 -69 -17 -126 -16 -128 2 -2 93 -4 204
-5 l200 -1 6 -25 c6 -31 12 -57 25 -131 6 -30 12 -64 14 -75 21 -108 69 -349
70 -358 2 -7 6 -33 11 -59 l7 -48 278 0 278 0 -8 33 c-5 17 -30 131 -55 252
-26 121 -48 227 -50 235 -1 8 -13 62 -25 120 -12 58 -24 112 -25 120 -2 8 -10
47 -19 85 -8 39 -17 82 -20 95 -4 25 -21 103 -76 360 -17 80 -38 177 -45 215
-8 39 -17 79 -19 90 -3 11 -23 106 -45 210 -22 105 -54 255 -71 335 -17 80
-33 156 -36 170 -3 14 -34 162 -70 330 -36 168 -70 328 -75 355 -6 28 -13 61
-15 75 -6 31 -12 37 -18 19z"/>
<path d="M11529 8728 c0 -17 0 -2579 0 -2595 1 -10 64 -13 280 -13 l279 0 0
1310 1 1310 -280 0 c-216 0 -279 -3 -280 -12z"/>
<path d="M8615 5875 c-499 -78 -897 -388 -1080 -840 -159 -396 -141 -876 49
-1256 67 -133 139 -232 251 -344 215 -217 477 -345 800 -392 66 -10 343 -10
422 0 200 25 432 113 608 231 182 122 361 331 457 536 37 79 81 201 94 260 4
19 8 37 9 40 1 3 4 19 8 35 34 151 39 403 11 575 -24 146 -87 333 -151 448
-14 26 -31 56 -37 67 -35 64 -131 182 -211 261 -193 190 -463 329 -721 370
-20 3 -46 8 -58 11 -43 12 -372 10 -451 -2z m395 -239 c426 -63 740 -328 889
-748 17 -49 28 -88 26 -88 -2 0 0 -12 6 -26 5 -15 12 -41 14 -58 3 -17 9 -58
14 -91 15 -101 6 -318 -18 -435 -127 -607 -619 -969 -1231 -906 -431 45 -777
328 -920 755 -45 133 -61 231 -65 386 -5 234 33 415 129 610 154 312 416 518
741 584 55 11 116 21 135 23 55 5 230 1 280 -6z"/>
<path d="M5260 4461 l0 -1361 138 0 139 0 0 630 c0 347 3 633 6 636 4 5 380 8
444 5 6 -1 58 -80 115 -176 56 -97 148 -252 203 -345 55 -92 172 -290 259
-438 88 -149 167 -280 175 -291 16 -21 23 -21 183 -19 l167 3 -280 455 c-154
250 -301 489 -325 530 -25 41 -76 125 -114 185 -59 94 -85 143 -64 123 8 -9
173 29 229 53 322 134 471 366 452 702 -11 196 -61 313 -181 432 -105 104
-220 163 -386 199 -41 9 -88 19 -105 22 -16 4 -261 9 -542 11 l-513 5 0 -1361z
m1065 1090 c266 -70 389 -219 386 -468 -3 -224 -152 -388 -401 -441 -30 -6
-68 -14 -85 -18 -16 -4 -177 -9 -357 -11 l-328 -5 -1 39 c-1 50 -1 904 0 921
1 12 63 13 354 9 318 -4 360 -6 432 -26z"/>
<path d="M10830 4460 l0 -1360 774 0 775 0 -2 123 -2 122 -628 2 c-346 1 -631
4 -634 6 -2 3 -5 559 -5 1236 l0 1231 -139 0 -139 0 0 -1360z"/>
<path d="M12790 4460 l0 -1360 868 2 867 3 1 110 c0 61 -2 115 -4 122 -3 9
-178 12 -723 11 -396 0 -722 2 -725 5 -4 4 -8 787 -5 998 l1 46 648 1 c356 0
653 1 659 1 10 1 13 32 12 121 l-2 120 -658 0 -659 0 -1 28 c-3 161 0 895 5
899 3 3 319 6 703 7 l698 1 3 123 3 122 -846 0 -845 0 0 -1360z"/>
</g>
</svg>
